<?xml version="1.0" encoding="UTF-8"?>
<svg id="Camada_2" data-name="Camada 2" xmlns="http://www.w3.org/2000/svg" viewBox="0 0 234.74 179.75">
  <defs>
    <style>
      .cls-1 {
        fill-rule: evenodd;
      }
    </style>
  </defs>
  <g id="Camada_1-2" data-name="Camada 1">
    <g>
      <path class="cls-1" d="M223.65,154.7v-19.27h-2.57v19.77h13.65v-.33h-11.09v-.17h0ZM205.41,154.7v-19.27h-2.57v19.77h13.65v-.33h-11.08v-.17h0ZM193.06,135.44v19.77h2.57v-19.77h-2.57ZM174.48,145.15v-9.21h1.42c1.17,0,2.16.07,2.95.25.81.18,1.41.48,1.79.93.36.44.63.93.81,1.5.18.56.26,1.19.26,1.91,0,.4-.02.76-.07,1.1-.05.34-.13.65-.25.94-.1.28-.23.54-.38.77-.15.23-.32.43-.5.61-.17.17-.38.36-.62.52-.25.17-.53.32-.84.41-.11.03-.22.07-.33.1-.5.16-1.07.35-1.73.35h-2.51v-.17h0ZM171.97,135.44v19.77h2.51v-9.55h1.03c1.97,0,3.62,1.1,4.94,2.56,2.26,2.5,3.55,6.1,3.81,6.99h1.91c-1.79-4.31-3.2-6.23-3.21-6.24-1.7-2.3-2.97-2.9-3.77-3.28l-.66-.32.56-.08c.86-.12,1.62-.34,2.29-.64.73-.33,1.34-.74,1.83-1.21.45-.43.8-.91,1.02-1.45.23-.54.35-1.13.35-1.75,0-.54-.09-1.04-.26-1.49-.17-.46-.43-.88-.78-1.27-.35-.38-.76-.69-1.23-.94-.47-.26-1-.46-1.57-.63h0c-.58-.18-1.24-.3-2-.37-.76-.07-1.61-.1-2.56-.1h-4.22ZM163.52,150.37c0,.45-.03.87-.1,1.25-.07.38-.18.72-.34,1.03-.15.32-.37.61-.66.87-.28.26-.62.49-1.04.68-.42.21-.85.37-1.31.48-.46.1-.94.15-1.44.15-1,0-1.91-.19-2.74-.55-.83-.37-1.58-.92-2.24-1.65-.68-.75-1.19-1.75-1.52-3-.33-1.23-.5-2.71-.5-4.43s.18-3.23.52-4.44c.35-1.23.87-2.19,1.56-2.88.7-.7,1.45-1.22,2.26-1.57.81-.35,1.69-.52,2.63-.52s1.73.15,2.49.45c.76.3,1.46.75,2.08,1.35.19.16.36.34.52.53.12.14.23.28.33.42l.43-.45c-.79-.88-1.69-1.53-2.7-1.98-1.05-.46-2.21-.69-3.48-.69-1.47,0-2.79.25-3.95.76-1.16.51-2.17,1.28-3.04,2.3-.87,1.03-1.51,2.15-1.94,3.34-.43,1.2-.64,2.47-.64,3.84s.23,2.65.67,3.79c.45,1.14,1.12,2.16,2.01,3.05.91.89,1.93,1.56,3.06,2.01,1.13.45,2.38.67,3.74.67.69,0,1.4-.08,2.13-.23.74-.15,1.52-.38,2.33-.68.23-.09.52-.25.82-.46.36-.25.75-.56,1.11-.88h0c.44-.36.77-.81,1-1.31.24-.51.36-1.08.36-1.66v-3.01h-2.46v3.41h0ZM112.39,135.44v15.61l-11.67-15.61h-2.76v19.77h.31v-18.84l14.35,18.84h.28v-19.77h-.5ZM88.28,135.44v19.77h2.57v-19.77h-2.57ZM78.61,143.71c-.25.39-.53.69-.84.93-.31.23-.66.39-1.04.51-.36.12-.78.18-1.25.22-.47.04-.99.04-1.56.04h-1.56v-9.4h.15c.16-.03.37-.04.64-.05.26-.01.56-.02.89-.02.92,0,1.72.1,2.39.3.68.2,1.24.51,1.66.92.42.39.74.91.94,1.54s.31,1.37.31,2.22c0,.55-.06,1.06-.18,1.54-.12.47-.3.89-.54,1.26h0ZM69.81,135.44v19.77h2.54v-2.88c-.02-.42-.01-.76,0-1.17,0-.21,0-.45,0-.81v-4.61h2.32c1.14,0,2.11-.02,2.9-.1.78-.07,1.39-.2,1.83-.42h0c.43-.2.82-.45,1.15-.74.34-.29.63-.64.87-1.04.23-.39.41-.82.52-1.29.12-.46.18-.95.18-1.47,0-.61-.09-1.16-.26-1.65-.17-.49-.43-.93-.76-1.34-.36-.41-.78-.77-1.24-1.07-.43-.28-.9-.5-1.41-.64h0c-.57-.17-1.27-.31-2.1-.41-.77-.09-1.64-.14-2.62-.14h-3.91ZM60.59,155.2h2.57v-19.77h-2.49l-7.45,16.92-7.48-16.92h-2.51v19.77h.33v-18.81l8.26,18.81h.48l8.29-18.81v18.81h0ZM33.85,155.2h2.79l-8.4-19.77h-.36l-8.18,19.77h.36l3.05-7.37h7.73l3.02,7.37h0ZM26.97,138.5l3.75,9h-7.48l3.72-9h0ZM15.35,152.12c-.27.38-.57.72-.9,1.01-.38.34-.8.61-1.26.83-.56.26-1.1.45-1.65.58-.54.13-1.08.19-1.61.19-1,0-1.92-.2-2.76-.6-.83-.4-1.59-.99-2.26-1.78h0c-.67-.8-1.17-1.77-1.5-2.91-.33-1.13-.49-2.43-.49-3.9,0-1.55.15-2.92.45-4.11.3-1.2.76-2.21,1.37-3.06.62-.85,1.34-1.49,2.18-1.91.83-.43,1.77-.64,2.81-.64.84,0,1.64.13,2.4.39.76.26,1.48.65,2.17,1.18h0c.21.17.43.36.63.58.14.15.27.3.39.47l.34-.32c-.27-.31-.61-.61-1-.9-.43-.32-.92-.62-1.48-.91-.58-.29-1.19-.51-1.84-.66-.64-.14-1.31-.22-2.02-.22-.86,0-1.69.1-2.48.3-.8.2-1.55.5-2.27.9h0c-.72.4-1.36.9-1.92,1.52-.56.62-1.04,1.34-1.44,2.18h0c-.41.84-.72,1.7-.91,2.59-.2.89-.3,1.8-.3,2.76,0,1.43.22,2.72.65,3.87.43,1.15,1.09,2.17,1.95,3.05.88.86,1.88,1.52,3.01,1.95,1.12.43,2.37.65,3.74.65,1.29,0,2.47-.24,3.53-.72,1.03-.46,1.95-1.15,2.77-2.04l-.31-.32h0ZM133.48,155.2h2.79l-8.4-19.77h-.36l-8.18,19.77h.36l3.05-7.37h7.73l3.02,7.37h0ZM126.6,138.5l3.75,9h-7.48l3.72-9Z"/>
      <g>
        <path class="cls-1" d="M143.21,72.3s0,.08,0,.12c-.66,9.32-4.91,17.68-11.37,23.7-6.41,5.98-15,9.65-24.4,9.65-9.86,0-18.83-4.03-25.33-10.53-6.5-6.5-10.53-15.47-10.53-25.33v-34.04c0-9.86,4.03-18.83,10.53-25.33,6.5-6.5,15.47-10.53,25.33-10.53s17.99,3.67,24.4,9.65c6.46,6.02,10.71,14.38,11.37,23.7,0,.04,0,.08,0,.12h-1.87c-.62-8.82-4.65-16.75-10.77-22.45-6.08-5.66-14.22-9.14-23.13-9.14s-17.84,3.82-24,9.98c-6.16,6.16-9.98,14.66-9.98,24v34.04c0,9.35,3.82,17.84,9.98,24,6.16,6.16,14.66,9.98,24,9.98s17.05-3.48,23.13-9.14c6.12-5.7,10.15-13.63,10.77-22.45h1.87Z"/>
        <path class="cls-1" d="M130.65,53.82c-.07,0-.13,0-.2-.02v-1.83c.06-.01.13-.02.2-.02h31.57c.52,0,.94.42.94.94v17.02c0,9.86-4.03,18.83-10.53,25.33-6.5,6.5-15.47,10.53-25.33,10.53s-18.83-4.03-25.33-10.53c-6.5-6.5-10.53-15.47-10.53-25.33v-34.04c0-9.86,4.03-18.83,10.53-25.33S117.43,0,127.3,0s17.99,3.67,24.4,9.65c6.46,6.02,10.71,14.38,11.37,23.7,0,.04,0,.08,0,.12h-1.87c-.62-8.82-4.65-16.75-10.77-22.45-6.08-5.66-14.22-9.14-23.13-9.14s-17.84,3.82-24,9.98c-6.16,6.16-9.98,14.66-9.98,24v34.04c0,9.35,3.82,17.84,9.98,24,6.16,6.16,14.66,9.98,24,9.98s17.84-3.82,24-9.98c6.16-6.16,9.98-14.66,9.98-24v-16.08h-30.63Z"/>
      </g>
      <g>
        <path class="cls-1" d="M71.58,179.72h4.19c2.19,0,3.46-.91,3.46-2.51v-.03c0-1.3-1.05-2.21-2.38-2.41,1.11-.25,1.87-1.09,1.87-2.28v-.03c0-.66-.22-1.2-.62-1.61-.54-.54-1.43-.83-2.55-.83h-3.97v9.69h0ZM71.88,174.68v-4.37h3.65c1.81,0,2.88.86,2.88,2.17v.03c0,1.48-1.21,2.17-2.64,2.17h-3.89ZM71.88,179.44v-4.49h4.13c1.59,0,2.92.78,2.92,2.24v.03c0,1.4-1.16,2.22-3.16,2.22h-3.89ZM84.92,179.72h.3v-4.06l4.08-5.63h-.36l-3.86,5.37-3.9-5.37h-.36l4.1,5.63v4.06Z"/>
        <path class="cls-1" d="M154.51,175.99l2.21-4.07,2.12,4.07h-4.33ZM155.81,170.1l-5.41,9.65h2.03l1.17-2.16h6.06l1.12,2.16h2.38l-5.41-9.65h-1.95ZM123.15,171.66h4.41v8.09h2.08v-8.09h4.46v-1.6h-10.94v1.6h0ZM103.55,171.62c.65,0,1.08.09,1.08.82v1.21c0,.74-.43.86-1.08.86h-6.62v-2.9h6.62ZM94.9,170.06v9.69h2.03v-3.72h3.07l4.5,3.72h2.94l-5.1-3.72c.78,0,2.51.04,3.16-.13.87-.22,1.12-.82,1.12-1.69v-2.34c0-1.43-.78-1.82-2.12-1.82h-9.6ZM145.21,171.62c.65,0,1.12.09,1.12.82v1.21c0,.74-.43.86-1.12.86h-6.57v-2.9h6.57ZM136.6,170.06v9.69h2.03v-3.72h3.07l4.5,3.72h2.94l-5.1-3.72c.78,0,2.51.04,3.16-.13.82-.22,1.08-.82,1.08-1.69v-2.34c0-1.43-.74-1.82-2.08-1.82h-9.6ZM109.95,170.06v7.44c0,1.82.56,2.25,2.29,2.25h6.1c1.77,0,2.29-.43,2.29-2.25v-7.44h-2.03v8h-6.58v-8h-2.08Z"/>
      </g>
    </g>
  </g>
</svg>